<?xml version="1.0" encoding="UTF-8" standalone="no"?><!DOCTYPE svg PUBLIC "-//W3C//DTD SVG 1.1//EN" "http://www.w3.org/Graphics/SVG/1.1/DTD/svg11.dtd"><svg width="100%" height="100%" viewBox="0 0 345 289" version="1.1" xmlns="http://www.w3.org/2000/svg" xmlns:xlink="http://www.w3.org/1999/xlink" xml:space="preserve" xmlns:serif="http://www.serif.com/" style="fill-rule:evenodd;clip-rule:evenodd;stroke-linecap:round;stroke-linejoin:round;stroke-miterlimit:1.5;"><g><path d="M228.772,228.772l-65.04,-0c-26.683,-0 -48.346,-25.404 -48.346,-56.693l-0,-112.756l65.04,-0c26.682,-0 48.346,25.403 48.346,56.693l-0,112.756Z" style="fill:#a036f4;fill-opacity:0.87;"/><g><g><path d="M115.386,59.323l-0,-0.63c-0,-31.29 21.663,-56.693 48.346,-56.693l130.079,-0c26.683,-0 48.346,25.403 48.346,56.693l0,113.386c0,31.289 -21.663,56.693 -48.346,56.693l-65.039,-0l-0,-112.756c-0,-31.29 -21.664,-56.693 -48.346,-56.693l-65.04,-0Z" style="fill:#d472ff;stroke:#8c00ca;stroke-width:4px;"/><path d="M228.772,228.772l-0,0.63c-0,31.289 -21.664,56.693 -48.346,56.693l-130.08,-0c-26.683,-0 -48.346,-25.404 -48.346,-56.693l0,-113.386c0,-31.29 21.663,-56.693 48.346,-56.693l65.04,-0l-0,112.756c-0,31.289 21.663,56.693 48.346,56.693l65.04,-0Z" style="fill:#8c00ca;stroke:#d472ff;stroke-width:4px;"/></g></g></g></svg>