<?xml version="1.0" encoding="UTF-8"?>
<svg width="1200pt" height="1200pt" version="1.1" viewBox="0 0 1200 1200" xmlns="http://www.w3.org/2000/svg">
 <g>
  <path d="m60 0h1080c33.137 0 60 33.137 60 60v1080c0 33.137-26.863 60-60 60h-1080c-33.137 0-60-33.137-60-60v-1080c0-33.137 26.863-60 60-60z" fill="#ffd65b"/>
  <path d="m554.82 611.76-44.777 44.801-24.488-24.488c-23.402-23.402-61.332-23.402-84.734 0l-139.69 139.66c-23.379 23.402-23.379 61.332 0 84.734 23.711 23.688 58.711 58.688 82.395 82.395 23.402 23.379 61.332 23.379 84.734 0l139.66-139.69c23.402-23.402 23.402-61.332 0-84.734l-24.488-24.488 44.801-44.777c18.469 9.2578 41.562 6.1641 56.984-9.2344l292.25-292.25c10.746-10.77 16.793-25.34 16.793-40.547 0-15.207-6.0469-29.805-16.793-40.547l-0.070312-0.070312c-10.746-10.746-25.34-16.793-40.547-16.793s-29.781 6.0469-40.547 16.793c-63.504 63.527-235.78 235.8-292.25 292.25-15.398 15.422-18.492 38.52-9.2344 56.984zm-20.547 135.82c-2.1484 3.2578-4.6523 6.3281-7.5117 9.1875l-140.92 140.92c-2.8594 2.8594-5.9258 5.3594-9.1875 7.5117l0.26172 0.26172c4.9609 4.9609 12.988 4.9609 17.926 0l139.69-139.69c4.9609-4.9375 4.9609-12.965 0-17.926l-0.26172-0.26172zm-40.902-24.207-140.92 140.92c-4.6055 4.6055-12.09 4.6055-16.695 0l-0.046875-0.046874c-4.6055-4.6055-4.6055-12.09 0-16.695l140.92-140.92c4.6055-4.6055 12.09-4.6055 16.695 0l0.046875 0.046875c4.6055 4.6055 4.6055 12.09 0 16.695zm-40.949-57.648-0.26172-0.26172c-4.9609-4.9609-12.988-4.9609-17.926 0l-139.69 139.69c-4.9609 4.9375-4.9609 12.965 0 17.926l0.26172 0.26172c2.1484-3.2578 4.6523-6.3281 7.5117-9.1875l140.92-140.92c2.8594-2.8594 5.9258-5.3594 9.1875-7.5117z" fill-rule="evenodd"/>
 </g>
</svg>
