<?xml version="1.0" encoding="UTF-8" standalone="no"?>
<!DOCTYPE svg PUBLIC "-//W3C//DTD SVG 1.1//EN" "http://www.w3.org/Graphics/SVG/1.1/DTD/svg11.dtd">
<svg width="100%" height="100%" viewBox="0 0 342 288" version="1.1" xmlns="http://www.w3.org/2000/svg" xmlns:xlink="http://www.w3.org/1999/xlink" xml:space="preserve" xmlns:serif="http://www.serif.com/" style="fill-rule:evenodd;clip-rule:evenodd;stroke-linecap:round;stroke-linejoin:round;stroke-miterlimit:1.5;">
    <g transform="matrix(0.24,0,0,0.24,-225.525,-111.771)">
        <g transform="matrix(0.789001,0,0,0.918416,-94.0014,-14.1384)">
            <path d="M2518.26,1046.99L2518.26,1561.4C2518.26,1703.35 2403.85,1818.6 2262.94,1818.6L1576,1818.6C1435.09,1818.6 1320.69,1703.35 1320.69,1561.4L1320.69,1046.99C1320.69,905.032 1435.09,789.783 1576,789.783L2262.94,789.783C2403.85,789.783 2518.26,905.032 2518.26,1046.99Z" style="fill:rgb(140,0,202);stroke:rgb(212,114,255);stroke-width:19.47px;"/>
        </g>
        <g transform="matrix(0.789001,0,0,0.918416,368.557,-251.326)">
            <path d="M2518.26,1042.09L2518.26,1566.29C2518.26,1705.55 2384.1,1818.6 2218.86,1818.6L1620.08,1818.6C1454.84,1818.6 1320.69,1705.55 1320.69,1566.29L1320.69,1042.09C1320.69,902.838 1454.84,789.783 1620.08,789.783L2218.86,789.783C2384.1,789.783 2518.26,902.838 2518.26,1042.09" style="fill:rgb(212,114,255);stroke:rgb(140,0,202);stroke-width:19.42px;"/>
        </g>
    </g>
</svg>
