<?xml version="1.0" encoding="UTF-8"?>
<svg width="1200pt" height="1200pt" version="1.1" viewBox="0 0 1200 1200" xmlns="http://www.w3.org/2000/svg">
 <path d="m348.84 984h502.32c73.199 0 132.84-59.641 132.84-132.84v-502.32c0-73.199-59.641-132.84-132.84-132.84-35.52 0-68.879 13.801-93.961 38.879l-205.2 205.2v-100.08c0-26.52-21.48-48-48-48s-48 21.48-48 48v144c0 66.121 53.879 120 120 120h144c26.52 0 48-21.48 48-48s-21.48-48-48-48h-100.08l205.2-205.2c6.8398-6.8398 16.32-10.801 26.039-10.801 20.281 0 36.84 16.559 36.84 36.84v502.32c0 20.281-16.559 36.84-36.84 36.84h-502.32c-20.281 0-36.84-16.559-36.84-36.84 0-9.8398 3.8398-19.078 10.801-26.039l94.32-94.32c18.719-18.719 18.719-49.078 0-67.922-18.719-18.719-49.199-18.719-67.922 0l-94.32 94.32c-25.078 25.078-38.879 58.441-38.879 93.961 0 73.199 59.641 132.84 132.84 132.84z"/>
</svg>
