<?xml version="1.0" encoding="UTF-8"?>
<svg width="1200pt" height="1200pt" version="1.1" viewBox="0 0 1200 1200" xmlns="http://www.w3.org/2000/svg">
 <path d="m528.26 618.68-71.102 71.137-38.887-38.887c-37.164-37.164-97.387-37.164-134.55 0l-221.81 221.77c-37.125 37.164-37.125 97.387 0 134.55 37.648 37.613 93.227 93.188 130.84 130.84 37.164 37.125 97.387 37.125 134.55 0l221.77-221.81c37.164-37.164 37.164-97.387 0-134.55l-38.887-38.887 71.137-71.102c29.324 14.699 66 9.7891 90.488-14.664l464.06-464.06c17.062-17.102 26.664-40.238 26.664-64.387 0-24.148-9.6016-47.324-26.664-64.387-0.039063-0.039063-0.074219-0.074219-0.11328-0.11328-17.062-17.062-40.238-26.664-64.387-26.664-24.148 0-47.289 9.6016-64.387 26.664-100.84 100.88-374.4 374.44-464.06 464.06-24.449 24.488-29.363 61.164-14.664 90.488zm-32.625 215.66c-3.4141 5.1758-7.3867 10.051-11.926 14.586l-223.76 223.76c-4.5391 4.5391-9.4141 8.5117-14.586 11.926l0.41406 0.41406c7.875 7.875 20.625 7.875 28.461 0l221.81-221.81c7.875-7.8359 7.875-20.586 0-28.461zm-64.949-38.438-223.76 223.76c-7.3125 7.3125-19.199 7.3125-26.512 0l-0.074218-0.074218c-7.3125-7.3125-7.3125-19.199 0-26.512l223.76-223.76c7.3125-7.3125 19.199-7.3125 26.512 0l0.074219 0.074219c7.3125 7.3125 7.3125 19.199 0 26.512zm-65.023-91.539-0.41406-0.41406c-7.875-7.875-20.625-7.875-28.461 0l-221.81 221.81c-7.875 7.8359-7.875 20.586 0 28.461l0.41406 0.41406c3.4141-5.1758 7.3867-10.051 11.926-14.586l223.76-223.76c4.5391-4.5391 9.4141-8.5117 14.586-11.926z" fill-rule="evenodd"/>
</svg>
